<svg xmlns="http://www.w3.org/2000/svg" xmlns:xlink="http://www.w3.org/1999/xlink" viewBox="0 0 265.7 32.3" xml:space="preserve">
	<g class="st0">
		<path class="st1" d="M2.4,6.6h10.9v1.9H8.9v13.1h4.4v1.9H2.4v-1.9h4.4V8.5H2.4V6.6z"/>
		<path class="st1" d="M20.1,23.5h-2.1c0-1.9,0-4.1,0-6.2c0-2.2,0-4.4,0-6.2h2.1c0,0.6,0,1.1-0.1,1.6c0.9-1.2,2.4-1.9,4-1.9
		c2.6,0,4.7,1.9,4.7,4.9v7.9h-2.1v-7.5c0-2.3-1.3-3.3-3-3.3c-1.8,0-3.5,1.3-3.5,3.3V23.5z"/>
		<path class="st1" d="M39.9,23.7c-3.1,0-4.7-1.9-4.7-4.7v-6.1h-2.7V11h2.7V7.3l2.1-0.3V11h7.4v1.9h-7.4v5.7c0,2,1,3.1,2.6,3.1
		c1.6,0,2.6-0.9,2.6-2.5c0-0.7-0.1-1.5-0.5-2.4l1.9-0.5c0.3,0.7,0.6,1.9,0.6,2.9C44.5,21.9,42.7,23.7,39.9,23.7z"/>
		<path
			class="st1"
			d="M60.7,18.2H50.6c0.4,2.2,2.1,3.6,4.5,3.6c1.6,0,3.2-0.8,3.9-2l1.6,1c-1.1,1.8-3.1,2.9-5.6,2.9
		c-3.7,0-6.5-2.7-6.5-6.5c0-3.8,2.7-6.5,6.3-6.5c3.4,0,5.9,2.4,5.9,6.1C60.8,17.3,60.8,17.7,60.7,18.2z M50.5,16.3h8.2
		c-0.3-2.3-1.8-3.7-4.1-3.7S50.9,14,50.5,16.3z"/>
		<path class="st1" d="M64.7,11h5.3c0,0.6,0,1-0.1,1.6c0.9-1.2,2.2-1.8,3.7-1.8c1.5,0,3,0.6,3.7,1.6l-1.5,1.3c-0.5-0.6-1.4-1-2.5-1
		c-2,0-3.3,1.3-3.3,3.3v5.6H75v1.9H64.1v-1.9h3.8v-8.6h-3.2V11z"/>
		<path
			class="st1"
			d="M90.5,23.7c-1.4,0-2.4-0.9-2.7-1.9c-1,1.2-2.5,1.9-4.2,1.9c-2.4,0-4-1.3-4-3.2c0-2.1,1.6-3.4,4-3.8
		c1.3-0.3,2.6-0.4,4.1-0.6v-0.9c0-1.8-1.5-2.5-2.9-2.5c-1.6,0-2.8,0.8-2.8,1.9c0,0,0,0.2,0.1,0.3l-2,0.4c-0.1-0.4-0.1-0.7-0.1-0.8
		c0-2.2,2.1-3.7,5-3.7c3,0,4.8,1.7,4.8,4.1V21c0,0.5,0.3,0.9,0.9,0.9c0.8,0,1.2-0.8,1.2-2.1l1.8,0.4C93.7,22.3,92.4,23.7,90.5,23.7z
		 M83.9,21.9c1.5,0,3-0.8,3.9-2v-2.3c-1.6,0.2-3.1,0.4-4.1,0.7c-1.1,0.3-1.8,1.1-1.8,1.9C81.9,21.3,82.7,21.9,83.9,21.9z"/>
		<path class="st1" d="M107.7,19.9c-0.9,2.4-3.1,3.8-5.7,3.8c-3.5,0-6.2-2.7-6.2-6.5c0-3.8,2.7-6.5,6.2-6.5c3,0,5.3,1.8,6,4.7L106,16
		c-0.4-1.9-2.1-3.2-4.1-3.2c-2.4,0-4.2,1.9-4.2,4.4c0,2.6,1.8,4.4,4.2,4.4c1.7,0,3.2-1,3.8-2.7L107.7,19.9z"/>
		<path class="st1" d="M117.9,23.7c-3.1,0-4.7-1.9-4.7-4.7v-6.1h-2.7V11h2.7V7.3l2.1-0.3V11h7.4v1.9h-7.4v5.7c0,2,1,3.1,2.6,3.1
		c1.6,0,2.6-0.9,2.6-2.5c0-0.7-0.1-1.5-0.5-2.4l1.9-0.5c0.3,0.7,0.6,1.9,0.6,2.9C122.5,21.9,120.7,23.7,117.9,23.7z"/>
		<path
			class="st1"
			d="M126.4,17.2c0-3.8,2.7-6.5,6.2-6.5c3.6,0,6.2,2.7,6.2,6.5c0,3.8-2.7,6.5-6.2,6.5
		C129.1,23.7,126.4,21.1,126.4,17.2z M136.7,17.2c0-2.6-1.7-4.4-4.1-4.4c-2.4,0-4.1,1.9-4.1,4.4c0,2.6,1.7,4.4,4.1,4.4
		C135,21.7,136.7,19.8,136.7,17.2z"/>
		<path
			class="st1"
			d="M145.3,28.4h-2.1c0-2.6,0-5.7,0-8.7c0-3.1,0-6.1,0-8.7h2.1c0,0.6,0,1.1-0.1,1.7c1-1.2,2.4-1.9,4-1.9
		c2.9,0,5.3,2.4,5.3,6.5c0,4.1-2.4,6.5-5.3,6.5c-1.6,0-3-0.7-4-2c0,0.4,0.1,1.1,0.1,1.7V28.4z M152.4,17.2c0-2.8-1.7-4.6-3.7-4.6
		c-2,0-3.7,1.8-3.7,4.6c0,2.8,1.7,4.6,3.7,4.6C150.7,21.8,152.4,20,152.4,17.2z"/>
		<path class="st1" d="M167,18.7V11h2.1c0,1.9,0,4.1,0,6.2c0,2.2,0,4.4,0,6.2H167c0-0.6,0-1,0.1-1.5c-0.9,1.1-2.3,1.8-3.8,1.8
		c-2.6,0-4.7-1.8-4.7-4.8v-8h2.1v7.7c0,2.2,1.3,3.2,2.9,3.2C165.4,21.8,167,20.6,167,18.7z"/>
		<path
			class="st1"
			d="M183.6,14c-1.2-0.9-2.8-1.4-4.4-1.4c-1.6,0-2.4,0.7-2.4,1.7c0,1.3,1.2,1.5,3.8,2c2.4,0.5,4.5,1.3,4.5,3.7
		c0,2.4-2,3.8-5.3,3.8c-2.4,0-4.6-0.7-5.9-2l1.6-1.5c1.2,1,2.9,1.6,4.6,1.6c1.7,0,2.8-0.6,2.8-1.6c0-1.3-1-1.4-4.3-2.2
		c-2.3-0.6-3.8-1.4-3.8-3.7c0-2.4,2.2-3.6,4.7-3.6c1.8,0,3.9,0.6,5.4,1.7L183.6,14z"/>
		<path class="st1" d="M211.4,23.7c-3.1,0-4.7-1.9-4.7-4.7v-6.1h-2.7V11h2.7V7.3l2.1-0.3V11h7.4v1.9h-7.4v5.7c0,2,1,3.1,2.6,3.1
		c1.6,0,2.6-0.9,2.6-2.5c0-0.7-0.1-1.5-0.5-2.4l1.9-0.5c0.3,0.7,0.6,1.9,0.6,2.9C216.1,21.9,214.3,23.7,211.4,23.7z"/>
		<path
			class="st1"
			d="M232.3,18.2h-10.1c0.4,2.2,2.1,3.6,4.5,3.6c1.6,0,3.2-0.8,3.9-2l1.6,1c-1.1,1.8-3.1,2.9-5.6,2.9
		c-3.7,0-6.5-2.7-6.5-6.5c0-3.8,2.7-6.5,6.3-6.5c3.4,0,5.9,2.4,5.9,6.1C232.4,17.3,232.4,17.7,232.3,18.2z M222.1,16.3h8.2
		c-0.3-2.3-1.8-3.7-4.1-3.7C224,12.6,222.5,14,222.1,16.3z"/>
		<path
			class="st1"
			d="M246.5,23.7c-1.4,0-2.4-0.9-2.7-1.9c-1,1.2-2.5,1.9-4.2,1.9c-2.4,0-4-1.3-4-3.2c0-2.1,1.6-3.4,4-3.8
		c1.3-0.3,2.6-0.4,4.1-0.6v-0.9c0-1.8-1.5-2.5-2.9-2.5c-1.6,0-2.8,0.8-2.8,1.9c0,0,0,0.2,0.1,0.3l-2,0.4c-0.1-0.4-0.1-0.7-0.1-0.8
		c0-2.2,2.1-3.7,5-3.7c3,0,4.8,1.7,4.8,4.1V21c0,0.5,0.3,0.9,0.9,0.9c0.8,0,1.2-0.8,1.2-2.1l1.8,0.4
		C249.7,22.3,248.4,23.7,246.5,23.7z M239.9,21.9c1.5,0,3-0.8,3.9-2v-2.3c-1.6,0.2-3.1,0.4-4.1,0.7c-1.1,0.3-1.8,1.1-1.8,1.9
		C237.9,21.3,238.7,21.9,239.9,21.9z"/>
		<path
			class="st1"
			d="M253.3,23.5h-2c0-1.9,0-4.1,0-6.2c0-2.2,0-4.4,0-6.2h2c0,0.4,0,0.7,0,1c0.6-0.8,1.4-1.3,2.3-1.3
		c1.1,0,2.1,0.7,2.5,1.8c0.6-1.2,1.6-1.8,2.7-1.8c1.6,0,2.8,1.4,2.8,3.6v9.2h-1.9v-9c0-1.2-0.6-1.9-1.3-1.9c-1.1,0-1.9,1.2-1.9,3.3
		v7.5h-1.9v-9c0-1.2-0.6-1.9-1.4-1.9c-1.1,0-1.8,1.2-1.8,3.3V23.5z"/>
	</g>
</svg>
