<svg xmlns="http://www.w3.org/2000/svg" xmlns:xlink="http://www.w3.org/1999/xlink" viewBox="0 0 282.8 32.3" xml:space="preserve">
	<path d="M0,32.3v-2h282.8v2H0z"/>
	<g class="st0">
		<path class="st1" d="M9.3,6.6h2.4l2.5,16.9h-2.1l-0.6-4.7H5.6l-2.2,4.7h-2L9.3,6.6z M11.2,16.8l-1.1-7.9l-3.6,7.9H11.2z"/>
		<path class="st1" d="M21.9,19L23.6,8h-5.5L18.4,6H26l-2,12.5c-0.3,1.8,0.5,3.1,2.1,3.1c1.3,0,2-0.8,2.2-2c0.1-0.6,0.1-1.3-0.1-1.8
		l2-0.5c0.2,0.7,0.3,1.7,0.1,2.5c-0.3,2.2-2.2,3.8-4.4,3.8C23.1,23.7,21.5,21.7,21.9,19z"/>
		<path
			class="st1"
			d="M39.9,23.7c-3.8,0-6.2-2.7-5.6-6.5c0.6-3.8,3.8-6.5,7.6-6.5c3.1,0,5.1,1.7,4.5,4.1c-0.5,2-2.5,3.6-10.1,3.8
		c0.2,1.9,1.6,3.1,3.7,3.1c1.6,0,3.2-0.7,4.1-1.9l1.5,1C44.2,22.6,42.2,23.7,39.9,23.7z M36.4,16.8c6-0.1,7.4-1.1,7.7-2.3
		c0.3-1.1-0.8-1.8-2.5-1.8C38.9,12.8,37,14.4,36.4,16.8z"/>
		<path class="st1" d="M55.1,17.3l-3,2.4l-0.6,3.8h-2L52.2,6h2l-1.7,10.7l7.4-5.8h3l-6.2,4.9l4.3,7.6h-2.6L55.1,17.3z"/>
		<path
			class="st1"
			d="M75.9,14c-1-0.9-2.6-1.4-4.2-1.4c-1.6,0-2.4,0.6-2.6,1.4c-0.3,1.5,0.9,1.7,3.5,2.3c2.5,0.7,4.2,1.5,3.8,4.1
		C76,22.6,74,23.7,71,23.7c-2.8,0-4.8-0.7-6-2l1.8-1.5c1,1,2.6,1.6,4.3,1.6c1.7,0,2.9-0.5,3-1.4c0.2-1.4-0.8-1.6-3.9-2.4
		c-2.3-0.6-3.7-1.8-3.3-4.1c0.4-2.3,2.6-3.2,5-3.2c2,0,4,0.6,5.4,1.7L75.9,14z"/>
		<path
			class="st1"
			d="M89,21.9c-1.1,1.2-2.5,1.8-3.9,1.8c-3.1,0-5.1-2.4-4.4-6.5c0.6-4.1,3.2-6.5,6-6.5c1.6,0,3,0.7,3.8,2l0.2-1.7h2
		l-2,12.5h-2C88.8,22.9,88.9,22.4,89,21.9z M82.8,17.2c-0.4,2.8,0.9,4.6,2.9,4.6s3.9-1.8,4.3-4.6c0.5-2.8-0.9-4.6-2.9-4.6
		S83.2,14.4,82.8,17.2z"/>
		<path class="st1" d="M98.2,23.5h-2l2-12.5h2c-0.1,0.6-0.2,1.1-0.3,1.5c1-1.1,2.4-1.8,3.9-1.8c2.7,0,4.6,1.9,4.1,4.9l-1.2,7.9h-2.1
		l1.2-7.5c0.4-2.3-0.8-3.3-2.4-3.3c-1.8,0-3.6,1.3-4,3.3L98.2,23.5z"/>
		<path
			class="st1"
			d="M120.2,21.9c-1.1,1.2-2.5,1.8-3.9,1.8c-3.1,0-5.1-2.4-4.4-6.5c0.7-4.1,3.2-6.5,6-6.5c1.7,0,3,0.7,3.8,2
		c0-0.5,0.1-1.2,0.2-1.8l0.8-4.9h2L122,23.5h-2C120,22.9,120.1,22.4,120.2,21.9z M114,17.2c-0.4,2.8,0.9,4.6,2.9,4.6
		s3.9-1.8,4.3-4.6c0.5-2.8-0.9-4.6-2.9-4.6S114.4,14.4,114,17.2z"/>
		<path class="st1" d="M128.6,11h5.4c-0.1,0.6-0.2,1-0.3,1.5c1-1.1,2.4-1.8,4-1.8c1.2,0,2.7,0.6,3.3,1.6l-1.7,1.3
		c-0.4-0.6-1.2-1-2.3-1c-1.9,0-3.5,1.3-3.8,3.3l-1.2,7.5h-2l1.7-10.6h-3.4L128.6,11z"/>
		<path class="st1" d="M159.9,6.6h13.2l-0.3,1.9h-5.6l-2.4,15h-2.1l2.4-15h-5.6L159.9,6.6z"/>
		<path
			class="st1"
			d="M177.6,19l1-6.1h-4.2l0.3-1.9h6.3l-1.2,7.6c-0.3,1.8,0.5,3.1,2.1,3.1c1.3,0,2-0.8,2.2-2
		c0.1-0.6,0.1-1.3-0.1-1.8l2-0.5c0.2,0.7,0.3,1.7,0.1,2.5c-0.3,2.2-2.2,3.8-4.4,3.8C178.8,23.7,177.2,21.7,177.6,19z M178.2,6.8
		c0-1.2,1-2.3,2.3-2.3s2.3,1,2.3,2.3s-1,2.3-2.3,2.3S178.2,8.1,178.2,6.8z"/>
		<path
			class="st1"
			d="M191,23.5h-2l2-12.5h2c-0.1,0.3-0.1,0.6-0.1,0.9c0.6-0.7,1.4-1.1,2.2-1.1c1.2,0,2.1,0.6,2.4,1.7
		c0.7-1.1,1.7-1.7,2.7-1.7c1.8,0,2.8,1.4,2.5,3.6l-1.5,9.2h-2l1.4-9c0.2-1.2-0.3-1.9-1-1.9c-1,0-1.9,1.1-2.3,3l-1.2,7.9h-2l1.4-9
		c0.2-1.2-0.3-1.9-1-1.9c-1.1,0-2,1.2-2.3,3.3L191,23.5z"/>
		<path class="st1" d="M205.5,16.9c0.6-3.6,3.5-6.2,6.9-6.2c3.6,0,6,2.7,5.3,6.7c-0.6,3.7-3.5,6.3-6.9,6.3
		C207.2,23.7,204.9,21,205.5,16.9z M215.6,17.2c0.4-2.6-1-4.4-3.3-4.4c-2.3,0-4.3,1.9-4.7,4.4s1,4.4,3.3,4.4
		C213.2,21.7,215.2,19.8,215.6,17.2z"/>
		<path class="st1" d="M228.3,13.9l-2.3,14.5H224l2.3-14.5h-4l0.3-1.9h4l0.2-1c0.5-3.2,2.9-5.2,5.7-5.2c1.7,0,3.1,0.7,4.1,1.9L235,9
		c-0.7-0.8-1.5-1.2-2.8-1.2c-2,0-3.1,1.4-3.4,3.3l-0.2,1h4.3l-0.3,1.9H228.3z"/>
		<path
			class="st1"
			d="M242.7,23.7c-3.8,0-6.2-2.7-5.6-6.5c0.6-3.8,3.8-6.5,7.6-6.5c3.1,0,5.1,1.7,4.5,4.1c-0.5,2-2.5,3.6-10.1,3.8
		c0.2,1.9,1.6,3.1,3.7,3.1c1.6,0,3.2-0.7,4.1-1.9l1.5,1C247,22.6,245,23.7,242.7,23.7z M239.2,16.8c6-0.1,7.4-1.1,7.7-2.3
		c0.3-1.1-0.8-1.8-2.5-1.8C241.7,12.8,239.8,14.4,239.2,16.8z"/>
		<path
			class="st1"
			d="M258.3,23.7c-3.8,0-6.2-2.7-5.6-6.5c0.6-3.8,3.8-6.5,7.6-6.5c3.1,0,5.1,1.7,4.5,4.1c-0.5,2-2.5,3.6-10.1,3.8
		c0.2,1.9,1.6,3.1,3.7,3.1c1.6,0,3.2-0.7,4.1-1.9l1.5,1C262.6,22.6,260.6,23.7,258.3,23.7z M254.8,16.8c6-0.1,7.4-1.1,7.7-2.3
		c0.3-1.1-0.8-1.8-2.5-1.8C257.3,12.8,255.4,14.4,254.8,16.8z"/>
		<path class="st1" d="M274,23.5h-1.9L268.6,11h2.1l2.6,9.8l5.7-9.8h2.3L274,23.5z"/>
	</g>
</svg>
