<svg xmlns="http://www.w3.org/2000/svg" xmlns:xlink="http://www.w3.org/1999/xlink" viewBox="0 0 234 32.3" xml:space="preserve">
  <path d="M0,32.3v-2h234v2H0z"/>
  <g class="st0">
    <path
      class="st1"
      d="M8.8,23.7c-1.6,0-3-0.7-4-2c0.1,0.6,0.1,1.1,0.1,1.7H2.9c0-2.6,0-5.6,0-8.7c0-3,0-6.1,0-8.7h2.1V11
		c0,0.6,0,1.3-0.1,1.7c1-1.2,2.4-1.9,4-1.9c2.9,0,5.3,2.4,5.3,6.5C14.1,21.3,11.7,23.7,8.8,23.7z M12,17.2c0-2.8-1.6-4.6-3.7-4.6
		c-2,0-3.7,1.8-3.7,4.6c0,2.8,1.7,4.6,3.7,4.6C10.4,21.8,12,20,12,17.2z"/>
    <path class="st1" d="M22.2,28.4h-2.2l2.4-5.2L16.9,11h2.4l4.2,9.6l4.3-9.6h2.2L22.2,28.4z"/>
    <path class="st1" d="M49.2,6.6h10.9v1.9h-4.4v13.1h4.4v1.9H49.2v-1.9h4.4V8.5h-4.4V6.6z"/>
    <path class="st1" d="M66.9,23.5h-2.1c0-1.9,0-4.1,0-6.2c0-2.2,0-4.4,0-6.2h2.1c0,0.6,0,1.1-0.1,1.6c0.9-1.2,2.4-1.9,4-1.9
		c2.6,0,4.7,1.9,4.7,4.9v7.9h-2.1v-7.5c0-2.3-1.3-3.3-3-3.3c-1.8,0-3.5,1.3-3.5,3.3V23.5z"/>
    <path class="st1" d="M86.7,23.7c-3.1,0-4.7-1.9-4.7-4.7v-6.1h-2.7V11h2.7V7.3L84,7.1V11h7.4v1.9H84v5.7c0,2,1,3.1,2.6,3.1
		c1.6,0,2.6-0.9,2.6-2.5c0-0.7-0.1-1.5-0.5-2.4l1.9-0.5c0.3,0.7,0.6,1.9,0.6,2.9C91.3,21.9,89.5,23.7,86.7,23.7z"/>
    <path
      class="st1"
      d="M107.5,18.2H97.4c0.4,2.2,2.1,3.6,4.5,3.6c1.6,0,3.2-0.8,3.9-2l1.6,1c-1.1,1.8-3.1,2.9-5.6,2.9
		c-3.7,0-6.5-2.7-6.5-6.5c0-3.8,2.7-6.5,6.3-6.5c3.4,0,5.9,2.4,5.9,6.1C107.6,17.3,107.6,17.7,107.5,18.2z M97.3,16.3h8.2
		c-0.3-2.3-1.8-3.7-4.1-3.7C99.2,12.6,97.7,14,97.3,16.3z"/>
    <path class="st1" d="M111.5,11h5.3c0,0.6,0,1-0.1,1.6c0.9-1.2,2.2-1.8,3.7-1.8c1.5,0,3,0.6,3.7,1.6l-1.5,1.3c-0.5-0.6-1.4-1-2.5-1
		c-2,0-3.3,1.3-3.3,3.3v5.6h5.1v1.9h-10.9v-1.9h3.8v-8.6h-3.2V11z"/>
    <path
      class="st1"
      d="M137.3,23.7c-1.4,0-2.4-0.9-2.7-1.9c-1,1.2-2.5,1.9-4.2,1.9c-2.4,0-4-1.3-4-3.2c0-2.1,1.6-3.4,4-3.8
		c1.3-0.3,2.6-0.4,4.1-0.6v-0.9c0-1.8-1.5-2.5-2.9-2.5c-1.6,0-2.8,0.8-2.8,1.9c0,0,0,0.2,0.1,0.3l-1.9,0.4c-0.1-0.4-0.1-0.7-0.1-0.8
		c0-2.2,2.1-3.7,5-3.7c3,0,4.8,1.7,4.8,4.1V21c0,0.5,0.3,0.9,0.9,0.9c0.8,0,1.2-0.8,1.2-2.1l1.8,0.4
		C140.5,22.3,139.2,23.7,137.3,23.7z M130.7,21.9c1.5,0,3-0.8,3.9-2v-2.3c-1.6,0.2-3.1,0.4-4.1,0.7c-1.1,0.3-1.8,1.1-1.8,1.9
		C128.7,21.3,129.5,21.9,130.7,21.9z"/>
    <path class="st1" d="M154.5,19.9c-0.9,2.4-3.1,3.8-5.7,3.8c-3.5,0-6.2-2.7-6.2-6.5c0-3.8,2.7-6.5,6.2-6.5c3,0,5.3,1.8,6,4.7
		l-1.9,0.6c-0.4-1.9-2.1-3.2-4.1-3.2c-2.4,0-4.2,1.9-4.2,4.4c0,2.6,1.8,4.4,4.2,4.4c1.7,0,3.2-1,3.8-2.7L154.5,19.9z"/>
    <path class="st1" d="M164.7,23.7c-3.1,0-4.7-1.9-4.7-4.7v-6.1h-2.7V11h2.7V7.3l2.1-0.3V11h7.4v1.9H162v5.7c0,2,1,3.1,2.6,3.1
		c1.6,0,2.6-0.9,2.6-2.5c0-0.7-0.1-1.5-0.5-2.4l1.9-0.5c0.3,0.7,0.6,1.9,0.6,2.9C169.3,21.9,167.5,23.7,164.7,23.7z"/>
    <path
      class="st1"
      d="M173.2,17.2c0-3.8,2.7-6.5,6.2-6.5c3.6,0,6.2,2.7,6.2,6.5c0,3.8-2.7,6.5-6.2,6.5
		C175.9,23.7,173.2,21.1,173.2,17.2z M183.5,17.2c0-2.6-1.7-4.4-4.1-4.4c-2.4,0-4.1,1.9-4.1,4.4c0,2.6,1.7,4.4,4.1,4.4
		C181.8,21.7,183.5,19.8,183.5,17.2z"/>
    <path
      class="st1"
      d="M192.1,28.4h-2.1c0-2.6,0-5.7,0-8.7c0-3.1,0-6.1,0-8.7h2.1c0,0.6,0,1.1-0.1,1.7c1-1.2,2.4-1.9,4-1.9
		c2.9,0,5.3,2.4,5.3,6.5c0,4.1-2.4,6.5-5.3,6.5c-1.6,0-3-0.7-4-2c0,0.4,0.1,1.1,0.1,1.7V28.4z M199.2,17.2c0-2.8-1.7-4.6-3.7-4.6
		c-2,0-3.7,1.8-3.7,4.6c0,2.8,1.7,4.6,3.7,4.6C197.5,21.8,199.2,20,199.2,17.2z"/>
    <path class="st1" d="M213.8,18.7V11h2.1c0,1.9,0,4.1,0,6.2c0,2.2,0,4.4,0,6.2h-2.1c0-0.6,0-1,0.1-1.5c-0.9,1.1-2.3,1.8-3.8,1.8
		c-2.6,0-4.7-1.8-4.7-4.8v-8h2.1v7.7c0,2.2,1.3,3.2,2.9,3.2C212.2,21.8,213.8,20.6,213.8,18.7z"/>
    <path
      class="st1"
      d="M230.4,14c-1.2-0.9-2.8-1.4-4.4-1.4c-1.6,0-2.4,0.7-2.4,1.7c0,1.3,1.2,1.5,3.8,2c2.4,0.5,4.5,1.3,4.5,3.7
		c0,2.4-2,3.8-5.3,3.8c-2.4,0-4.6-0.7-5.9-2l1.6-1.5c1.2,1,2.9,1.6,4.6,1.6c1.7,0,2.8-0.6,2.8-1.6c0-1.3-1-1.4-4.3-2.2
		c-2.3-0.6-3.8-1.4-3.8-3.7c0-2.4,2.2-3.6,4.7-3.6c1.8,0,3.9,0.6,5.4,1.7L230.4,14z"/>
  </g>
</svg>
