<svg xmlns="http://www.w3.org/2000/svg" xmlns:xlink="http://www.w3.org/1999/xlink" viewBox="0 0 124.1 32.3" xml:space="preserve">
	<path d="M0,32.3v-2h124.1v2H0z"/>
	<g class="st0">
		<path
			class="st1"
			d="M2.9,20.1c1.2,1.1,3.2,1.6,5.3,1.6c2.4,0,4-1.1,4-2.8c0-1.8-1.6-2.2-5-3.2c-3.4-1-5.3-2-5.3-4.7
		c0-3.1,2.8-4.7,6.1-4.7c1.7,0,3.6,0.3,5.5,1.8l-1.3,1.6c-1.4-1.1-2.9-1.5-4.5-1.5C5.5,8.1,4,9,4,10.8c0,1.8,1.5,2.3,4.1,3
		c2.9,0.8,6.2,1.8,6.2,4.8c0,3.7-3,5.1-6.5,5.1c-2.3,0-4.7-0.4-6.4-1.8L2.9,20.1z"/>
		<path class="st1" d="M20.1,23.5h-2.1c0-1.9,0-4.1,0-6.2c0-2.2,0-4.4,0-6.2h2.1c0,0.6,0,1.1-0.1,1.6c0.9-1.2,2.4-1.9,4-1.9
		c2.6,0,4.7,1.9,4.7,4.9v7.9h-2.1v-7.5c0-2.3-1.3-3.3-3-3.3c-1.8,0-3.5,1.3-3.5,3.3V23.5z"/>
		<path
			class="st1"
			d="M43.7,23.7c-1.4,0-2.4-0.9-2.7-1.9c-1,1.2-2.5,1.9-4.2,1.9c-2.4,0-4-1.3-4-3.2c0-2.1,1.6-3.4,4-3.8
		c1.3-0.3,2.6-0.4,4.1-0.6v-0.9c0-1.8-1.5-2.5-2.9-2.5c-1.6,0-2.8,0.8-2.8,1.9c0,0,0,0.2,0.1,0.3l-2,0.4c-0.1-0.4-0.1-0.7-0.1-0.8
		c0-2.2,2.1-3.7,5-3.7c3,0,4.8,1.7,4.8,4.1V21c0,0.5,0.3,0.9,0.9,0.9c0.8,0,1.2-0.8,1.2-2.1l1.8,0.4C46.9,22.3,45.7,23.7,43.7,23.7z
		 M37.1,21.9c1.5,0,3-0.8,3.9-2v-2.3c-1.6,0.2-3.1,0.4-4.1,0.7c-1.1,0.3-1.8,1.1-1.8,1.9C35.1,21.3,35.9,21.9,37.1,21.9z"/>
		<path
			class="st1"
			d="M51.7,28.4h-2.1c0-2.6,0-5.7,0-8.7c0-3.1,0-6.1,0-8.7h2.1c0,0.6,0,1.1-0.1,1.7c1-1.2,2.4-1.9,4-1.9
		c2.9,0,5.3,2.4,5.3,6.5c0,4.1-2.4,6.5-5.3,6.5c-1.6,0-3-0.7-4-2c0,0.4,0.1,1.1,0.1,1.7V28.4z M58.8,17.2c0-2.8-1.7-4.6-3.7-4.6
		c-2,0-3.7,1.8-3.7,4.6c0,2.8,1.7,4.6,3.7,4.6C57.1,21.8,58.8,20,58.8,17.2z"/>
		<path
			class="st1"
			d="M74.4,14c-1.2-0.9-2.8-1.4-4.4-1.4c-1.6,0-2.4,0.7-2.4,1.7c0,1.3,1.2,1.5,3.8,2c2.4,0.5,4.5,1.3,4.5,3.7
		c0,2.4-2,3.8-5.3,3.8c-2.4,0-4.6-0.7-5.9-2l1.6-1.5c1.2,1,2.9,1.6,4.6,1.6c1.7,0,2.8-0.6,2.8-1.6c0-1.3-1-1.4-4.3-2.2
		c-2.3-0.6-3.8-1.4-3.8-3.7c0-2.4,2.2-3.6,4.7-3.6c1.8,0,3.9,0.6,5.4,1.7L74.4,14z"/>
		<path class="st1" d="M82.5,23.5h-2.1c0-1.9,0-5.3,0-8.7c0-3.4,0-6.8,0-8.7h2.1V11c0,0.6,0,1.1-0.1,1.6c0.9-1.2,2.4-1.9,4-1.9
		c2.7,0,4.8,1.9,4.8,4.9v7.9h-2.1v-7.5c0-2.3-1.3-3.3-3-3.3c-1.8,0-3.5,1.3-3.5,3.3V23.5z"/>
		<path class="st1" d="M95.2,17.2c0-3.8,2.7-6.5,6.2-6.5c3.6,0,6.2,2.7,6.2,6.5c0,3.8-2.7,6.5-6.2,6.5C97.9,23.7,95.2,21.1,95.2,17.2
		z M105.5,17.2c0-2.6-1.7-4.4-4.1-4.4c-2.4,0-4.1,1.9-4.1,4.4c0,2.6,1.7,4.4,4.1,4.4C103.8,21.7,105.5,19.8,105.5,17.2z"/>
		<path class="st1" d="M117.9,23.7c-3.1,0-4.7-1.9-4.7-4.7v-6.1h-2.7V11h2.7V7.3l2.1-0.3V11h7.4v1.9h-7.4v5.7c0,2,1,3.1,2.6,3.1
		c1.6,0,2.6-0.9,2.6-2.5c0-0.7-0.1-1.5-0.5-2.4l1.9-0.5c0.3,0.7,0.6,1.9,0.6,2.9C122.5,21.9,120.7,23.7,117.9,23.7z"/>
	</g>
</svg>
