<svg xmlns="http://www.w3.org/2000/svg" xmlns:xlink="http://www.w3.org/1999/xlink" viewBox="0 0 78 32.3" xml:space="preserve">
	<path d="M0,32.3v-2h78v2H0z"/>
	<g class="st0">
		<path class="st1" d="M13.2,13.2c-0.4-3-2.3-4.9-4.6-4.9c-2.8,0-4.7,2.7-4.7,6.6c0,4.1,1.9,6.8,4.7,6.8c2.3,0,4-1.7,4.5-4.4l1.8,1.2
		c-0.9,3.2-3.3,5.2-6.3,5.2c-4.1,0-6.8-3.5-6.8-8.8c0-5.2,2.7-8.6,6.8-8.6c3.3,0,5.8,2.3,6.6,6L13.2,13.2z"/>
		<path class="st1" d="M18.3,6h6.9c0,1.9,0,5.3,0,8.7v6.8H30v1.9H17.3v-1.9h5.8V8h-4.8V6z"/>
		<path class="st1" d="M32.8,17.2c0-3.8,2.7-6.5,6.2-6.5c3.6,0,6.2,2.7,6.2,6.5c0,3.8-2.7,6.5-6.2,6.5C35.5,23.7,32.8,21.1,32.8,17.2
		z M43.1,17.2c0-2.6-1.7-4.4-4.1-4.4c-2.4,0-4.1,1.9-4.1,4.4c0,2.6,1.7,4.4,4.1,4.4C41.4,21.7,43.1,19.8,43.1,17.2z"/>
		<path
			class="st1"
			d="M58.8,14c-1.2-0.9-2.8-1.4-4.4-1.4c-1.6,0-2.4,0.7-2.4,1.7c0,1.3,1.2,1.5,3.8,2c2.4,0.5,4.5,1.3,4.5,3.7
		c0,2.4-2,3.8-5.3,3.8c-2.4,0-4.6-0.7-5.9-2l1.6-1.5c1.2,1,2.9,1.6,4.6,1.6c1.7,0,2.8-0.6,2.8-1.6c0-1.3-1-1.4-4.3-2.2
		c-2.3-0.6-3.8-1.4-3.8-3.7c0-2.4,2.2-3.6,4.7-3.6c1.8,0,3.9,0.6,5.4,1.7L58.8,14z"/>
		<path
			class="st1"
			d="M76.3,18.2H66.2c0.4,2.2,2.1,3.6,4.5,3.6c1.6,0,3.2-0.8,3.9-2l1.6,1c-1.1,1.8-3.1,2.9-5.6,2.9
		c-3.7,0-6.5-2.7-6.5-6.5c0-3.8,2.7-6.5,6.3-6.5c3.4,0,5.9,2.4,5.9,6.1C76.4,17.3,76.4,17.7,76.3,18.2z M66.1,16.3h8.2
		c-0.3-2.3-1.8-3.7-4.1-3.7S66.5,14,66.1,16.3z"/>
	</g>
</svg>
