<svg xmlns="http://www.w3.org/2000/svg" xmlns:xlink="http://www.w3.org/1999/xlink" viewBox="0 0 314.3 32.3" xml:space="preserve">
<path d="M0,32.3v-2h314.3v2H0z"/>
<g class="st0">
	<path class="st1" d="M3.1,23.5L5.8,6.6C6.8,6.4,8,6.4,9,6.4c4.8,0,7.9,2.9,7,8.6c-1,6-4.6,8.6-9.2,8.6C5.6,23.6,4.2,23.6,3.1,23.5z
		 M7.6,8.4L5.5,21.6C6,21.7,6.5,21.7,7,21.7c4.5,0,6.3-3.1,6.9-6.9c0.5-3.5-0.9-6.5-4.8-6.5C8.6,8.3,8.1,8.4,7.6,8.4z"/>
	<path class="st1" d="M19.4,23.5h-2l2-12.5h2c-0.1,0.3-0.1,0.6-0.1,0.9c0.6-0.7,1.4-1.1,2.2-1.1c1.2,0,2.1,0.6,2.4,1.7
		c0.7-1.1,1.7-1.7,2.7-1.7c1.8,0,2.8,1.4,2.5,3.6l-1.5,9.2h-2l1.4-9c0.2-1.2-0.3-1.9-1-1.9c-1,0-1.9,1.1-2.3,3l-1.2,7.9h-2l1.4-9
		c0.2-1.2-0.3-1.9-1-1.9c-1.1,0-2,1.2-2.3,3.3L19.4,23.5z"/>
	<path class="st1" d="M37.2,19l1-6.1h-4.2l0.3-1.9h6.3l-1.2,7.6c-0.3,1.8,0.5,3.1,2.1,3.1c1.3,0,2-0.8,2.2-2
		c0.1-0.6,0.1-1.3-0.1-1.8l2-0.5c0.2,0.7,0.3,1.7,0.1,2.5c-0.3,2.2-2.2,3.8-4.4,3.8C38.4,23.7,36.8,21.7,37.2,19z M37.8,6.8
		c0-1.2,1-2.3,2.3-2.3s2.3,1,2.3,2.3s-1,2.3-2.3,2.3S37.8,8.1,37.8,6.8z"/>
	<path class="st1" d="M55.6,23.7c-3.2,0-4.6-1.9-4.1-4.7l1-6.1h-2.6l0.3-1.9h2.6l0.6-3.6l2.1-0.3L54.8,11h7.3l-0.3,1.9h-7.3l-1,6.1
		c-0.3,1.7,0.5,2.7,2.1,2.7c1.6,0,2.7-0.9,3-2.5c0.1-0.7,0.1-1.5-0.1-2.4l1.9-0.5c0.2,0.7,0.3,1.9,0.2,2.9
		C60.3,21.9,58.3,23.7,55.6,23.7z"/>
	<path class="st1" d="M66.2,11h5.4c-0.1,0.6-0.2,1-0.3,1.5c1-1.1,2.4-1.8,4-1.8c1.2,0,2.7,0.6,3.3,1.6L77,13.6c-0.4-0.6-1.2-1-2.3-1
		c-1.9,0-3.5,1.3-3.8,3.3l-1.2,7.5h-2l1.7-10.6h-3.4L66.2,11z"/>
	<path class="st1" d="M84.3,28.7c-2.1,0-3.7-0.8-4.4-2.2l1.9-1.1c0.6,0.9,1.6,1.4,3,1.4c2.2,0,3.8-1.5,4.5-5.6
		c-1,1.1-2.4,1.7-3.8,1.7c-2.7,0-4.5-1.8-4.1-4.8l1.1-7.2h2.1l-1.1,6.9c-0.3,2.2,0.8,3.2,2.4,3.2c1.7,0,3.5-1.2,3.8-3.2l1.1-6.9H93
		l-1.7,10.7C90.5,27,87.6,28.7,84.3,28.7z"/>
	<path class="st1" d="M123.2,6.6h2l-1.9,12.1c-0.5,3-3,5-6.1,5c-3.5,0-5.5-2.2-4.9-5.6l1.8-11.5h2l-1.9,11.8c-0.3,2,0.9,3.3,3,3.3
		c2.1,0,3.7-1.3,4-3.3L123.2,6.6z"/>
	<path class="st1" d="M131.1,19L132.8,8h-5.5l0.3-1.9h7.6l-2,12.5c-0.3,1.8,0.5,3.1,2.1,3.1c1.3,0,2-0.8,2.2-2
		c0.1-0.6,0.1-1.3-0.1-1.8l2-0.5c0.2,0.7,0.3,1.7,0.1,2.5c-0.3,2.2-2.2,3.8-4.4,3.8C132.3,23.7,130.7,21.7,131.1,19z"/>
	<path class="st1" d="M144.2,23.5h-2l2-12.5h2c-0.1,0.3-0.1,0.6-0.1,0.9c0.6-0.7,1.4-1.1,2.2-1.1c1.2,0,2.1,0.6,2.4,1.7
		c0.7-1.1,1.7-1.7,2.7-1.7c1.8,0,2.8,1.4,2.5,3.6l-1.5,9.2h-2l1.4-9c0.2-1.2-0.3-1.9-1-1.9c-1,0-1.9,1.1-2.3,3l-1.2,7.9h-2l1.4-9
		c0.2-1.2-0.3-1.9-1-1.9c-1.1,0-2,1.2-2.3,3.3L144.2,23.5z"/>
	<path class="st1" d="M164.7,23.7c-3.8,0-6.2-2.7-5.6-6.5c0.6-3.8,3.8-6.5,7.6-6.5c3.1,0,5.1,1.7,4.5,4.1c-0.5,2-2.5,3.6-10.1,3.8
		c0.2,1.9,1.6,3.1,3.7,3.1c1.6,0,3.2-0.7,4.1-1.9l1.5,1C169,22.6,167,23.7,164.7,23.7z M161.2,16.8c6-0.1,7.4-1.1,7.7-2.3
		c0.3-1.1-0.8-1.8-2.5-1.8C163.7,12.8,161.8,14.4,161.2,16.8z"/>
	<path class="st1" d="M175.4,11h5.4c-0.1,0.6-0.2,1-0.3,1.5c1-1.1,2.4-1.8,4-1.8c1.2,0,2.7,0.6,3.3,1.6l-1.7,1.3
		c-0.4-0.6-1.2-1-2.3-1c-1.9,0-3.5,1.3-3.8,3.3l-1.2,7.5h-2l1.7-10.6h-3.4L175.4,11z"/>
	<path class="st1" d="M191.6,15.9h9.2l-0.3,2.1h-9.2L191.6,15.9z"/>
	<path class="st1" d="M209,7.9l-2.5,15.5h-2l2.7-16.9h3.5l1.1,9.1l4-9.1h3.6l-2.7,16.9h-2L217.2,8l-4.1,9.1H210L209,7.9z"/>
	<path class="st1" d="M221.1,16.9c0.6-3.6,3.5-6.2,6.9-6.2c3.6,0,6,2.7,5.3,6.7c-0.6,3.7-3.5,6.3-6.9,6.3
		C222.8,23.7,220.5,21,221.1,16.9z M231.2,17.2c0.4-2.6-1-4.4-3.3-4.4c-2.3,0-4.3,1.9-4.7,4.4s1,4.4,3.3,4.4
		C228.8,21.7,230.8,19.8,231.2,17.2z"/>
	<path class="st1" d="M237.8,11h5.4c-0.1,0.6-0.2,1-0.3,1.5c1-1.1,2.4-1.8,4-1.8c1.2,0,2.7,0.6,3.3,1.6l-1.7,1.3
		c-0.4-0.6-1.2-1-2.3-1c-1.9,0-3.5,1.3-3.8,3.3l-1.2,7.5h-2l1.7-10.6h-3.4L237.8,11z"/>
	<path class="st1" d="M252.3,16.9c0.6-3.6,3.5-6.2,6.9-6.2c3.6,0,6,2.7,5.3,6.7c-0.6,3.7-3.5,6.3-6.9,6.3
		C254,23.7,251.7,21,252.3,16.9z M262.4,17.2c0.4-2.6-1-4.4-3.3-4.4c-2.3,0-4.3,1.9-4.7,4.4s1,4.4,3.3,4.4
		C260,21.7,262,19.8,262.4,17.2z"/>
	<path class="st1" d="M267.3,23.5l0.3-2l9.6-8.5h-7.5l0.3-2h10.4l-0.3,2l-9.6,8.5h8.5l-0.3,2H267.3z"/>
	<path class="st1" d="M283.5,16.9c0.6-3.6,3.5-6.2,6.9-6.2c3.6,0,6,2.7,5.3,6.7c-0.6,3.7-3.5,6.3-6.9,6.3
		C285.2,23.7,282.9,21,283.5,16.9z M293.6,17.2c0.4-2.6-1-4.4-3.3-4.4c-2.3,0-4.3,1.9-4.7,4.4s1,4.4,3.3,4.4
		C291.2,21.7,293.2,19.8,293.6,17.2z"/>
	<path class="st1" d="M305.2,23.5h-1.9L299.8,11h2.1l2.6,9.8l5.7-9.8h2.3L305.2,23.5z"/>
</g>
</svg>
