<svg xmlns="http://www.w3.org/2000/svg" xmlns:xlink="http://www.w3.org/1999/xlink" viewBox="0 0 108 122" xml:space="preserve">
  <g id="interactops-logo">
    <path
      class="st0"
      d="M54,5.1L10.6,75.5h86.8L54,5.1z M53.4,40c10.7,0,15.3,6.3,15.3,6.3s-5.1-5.1-15.3-4.9s-14.9,6-14.9,6
		C42.1,42.6,47.6,39.9,53.4,40z M54.1,60.6c-12.4,0-17.9-7.7-17.9-7.7S41.2,45,54,45c13.5,0,17.8,7.4,17.8,7.4S66.5,60.6,54.1,60.6
		L54.1,60.6z"/>
    <path class="st0" d="M62.4,85.1c0.3-5.9,1.7-7.1,1.7-7.1H42.9c-0.8,4.6,0,9.3,2.1,13.4c2.7,4.9,8.7,7.8,8.5,14
		c-0.2,6.5-5.3,11.6-5.3,11.6s13.6-0.6,16.8-12.6C67.4,94.9,62.1,91.7,62.4,85.1z"/>
    <path class="st0" d="M34.9,103.3c-3.5-3-5.3-7.5-4.7-12.1C30.9,86.5,32.5,82,35,78H18.6c-1.3,4.9-1.5,10-0.7,15
		c1.9,10.6,9.7,14.3,13.5,15.1c6.8,1.5,10.7-2.2,10.7-2.2C39.6,105.9,37,105,34.9,103.3z"/>
    <path class="st0" d="M73.8,78c2,1.6,3.6,3.6,4.7,5.9c2.3,6-1.6,7.9-4.6,11.3c-4.3,5,0,12.5,0,12.5s-0.9-5.5,8.3-9.5
		c4.2-1.9,7.5-5.3,9.2-9.6c2.2-6.3-0.2-10.6-0.2-10.6L73.8,78z"/>
    <path class="st0" d="M58.5,48c0,2.4-2,4.4-4.4,4.4c-2.4,0-4.4-2-4.4-4.4c0-0.4,0.1-0.8,0.2-1.2c-1.8,0.4-3.5,1-5.1,1.9
		c0.4,5.2,5,9,10.1,8.5c4.6-0.4,8.2-4,8.5-8.6c-1.6-0.9-3.3-1.5-5.1-1.9C58.5,47.2,58.5,47.6,58.5,48z"/>
  </g>
</svg>
