<svg xmlns="http://www.w3.org/2000/svg" xmlns:xlink="http://www.w3.org/1999/xlink" viewBox="0 0 267.1 32.3" xml:space="preserve">
	<path d="M0,32.3v-2h267.1v2H0z"/>
	<g class="st0">
		<path class="st1" d="M6.2,7.9L3.7,23.5h-2L4.4,6.6h3.5L9,15.7l4-9.1h3.6L14,23.5h-2L14.5,8l-4.1,9.1H7.2L6.2,7.9z"/>
		<path
			class="st1"
			d="M26.6,21.9c-1.1,1.2-2.5,1.8-3.9,1.8c-3.1,0-5.1-2.4-4.4-6.5c0.6-4.1,3.2-6.5,6-6.5c1.6,0,3,0.7,3.8,2l0.2-1.7
		h2l-2,12.5h-2C26.4,22.9,26.5,22.4,26.6,21.9z M20.4,17.2c-0.4,2.8,0.9,4.6,2.9,4.6s3.9-1.8,4.3-4.6c0.5-2.8-0.9-4.6-2.9-4.6
		S20.8,14.4,20.4,17.2z"/>
		<path class="st1" d="M35,11h5.4c-0.1,0.6-0.2,1-0.3,1.5c1-1.1,2.4-1.8,4-1.8c1.2,0,2.7,0.6,3.3,1.6l-1.7,1.3c-0.4-0.6-1.2-1-2.3-1
		c-1.9,0-3.5,1.3-3.8,3.3l-1.2,7.5h-2l1.7-10.6h-3.4L35,11z"/>
		<path
			class="st1"
			d="M52.8,19l1-6.1h-4.2l0.3-1.9h6.3l-1.2,7.6c-0.3,1.8,0.5,3.1,2.1,3.1c1.3,0,2-0.8,2.2-2
		c0.1-0.6,0.1-1.3-0.1-1.8l2-0.5c0.2,0.7,0.3,1.7,0.1,2.5c-0.3,2.2-2.2,3.8-4.4,3.8C54,23.7,52.4,21.7,52.8,19z M53.4,6.8
		c0-1.2,1-2.3,2.3-2.3s2.3,1,2.3,2.3s-1,2.3-2.3,2.3S53.4,8.1,53.4,6.8z"/>
		<path
			class="st1"
			d="M73.4,21.9c-1.1,1.2-2.5,1.8-3.9,1.8c-3.1,0-5.1-2.4-4.4-6.5c0.7-4.1,3.2-6.5,6-6.5c1.6,0,3,0.7,3.8,2l0.2-1.7
		h2l-2,12.5h-2C73.2,22.9,73.3,22.4,73.4,21.9z M67.2,17.2c-0.4,2.8,0.9,4.6,2.9,4.6s3.9-1.8,4.3-4.6c0.5-2.8-0.9-4.6-2.9-4.6
		S67.6,14.4,67.2,17.2z"/>
		<path class="st1" d="M99.8,7.9l-2.5,15.5h-2L98,6.6h3.5l1.1,9.1l4-9.1h3.6l-2.7,16.9h-2L108,8l-4.1,9.1h-3.2L99.8,7.9z"/>
		<path
			class="st1"
			d="M115.2,19l1-6.1h-4.2l0.3-1.9h6.3l-1.2,7.6c-0.3,1.8,0.5,3.1,2.1,3.1c1.3,0,2-0.8,2.2-2
		c0.1-0.6,0.1-1.3-0.1-1.8l2-0.5c0.2,0.7,0.3,1.7,0.1,2.5c-0.3,2.2-2.2,3.8-4.4,3.8C116.4,23.7,114.8,21.7,115.2,19z M115.8,6.8
		c0-1.2,1-2.3,2.3-2.3s2.3,1,2.3,2.3s-1,2.3-2.3,2.3S115.8,8.1,115.8,6.8z"/>
		<path class="st1" d="M128.6,11h5.4c-0.1,0.6-0.2,1-0.3,1.5c1-1.1,2.4-1.8,4-1.8c1.2,0,2.7,0.6,3.3,1.6l-1.7,1.3
		c-0.4-0.6-1.2-1-2.3-1c-1.9,0-3.5,1.3-3.8,3.3l-1.2,7.5h-2l1.7-10.6h-3.4L128.6,11z"/>
		<path class="st1" d="M142.5,23.5l0.3-2l9.6-8.5h-7.5l0.3-2h10.4l-0.3,2l-9.6,8.5h8.5l-0.3,2H142.5z"/>
		<path
			class="st1"
			d="M167,21.9c-1.1,1.2-2.5,1.8-3.9,1.8c-3.1,0-5.1-2.4-4.4-6.5c0.6-4.1,3.2-6.5,6-6.5c1.6,0,3,0.7,3.8,2l0.2-1.7
		h2l-1.9,12.5h-2C166.8,22.9,166.9,22.4,167,21.9z M160.8,17.2c-0.4,2.8,0.9,4.6,2.9,4.6c2,0,3.9-1.8,4.3-4.6
		c0.5-2.8-0.9-4.6-2.9-4.6C163.1,12.6,161.2,14.4,160.8,17.2z"/>
		<path
			class="st1"
			d="M175.4,23.5h-2l2-12.5h2c-0.1,0.3-0.1,0.6-0.1,0.9c0.6-0.7,1.4-1.1,2.2-1.1c1.2,0,2.1,0.6,2.4,1.7
		c0.7-1.1,1.7-1.7,2.7-1.7c1.8,0,2.8,1.4,2.5,3.6l-1.5,9.2h-2l1.4-9c0.2-1.2-0.3-1.9-1-1.9c-1,0-1.9,1.1-2.3,3l-1.2,7.9h-2l1.4-9
		c0.2-1.2-0.3-1.9-1-1.9c-1.1,0-2,1.2-2.3,3.3L175.4,23.5z"/>
		<path
			class="st1"
			d="M195.9,23.7c-3.8,0-6.2-2.7-5.6-6.5c0.6-3.8,3.8-6.5,7.6-6.5c3.1,0,5.1,1.7,4.5,4.1c-0.5,2-2.5,3.6-10.1,3.8
		c0.2,1.9,1.6,3.1,3.7,3.1c1.6,0,3.2-0.7,4.1-1.9l1.5,1C200.2,22.6,198.2,23.7,195.9,23.7z M192.4,16.8c6-0.1,7.4-1.1,7.7-2.3
		c0.3-1.1-0.8-1.8-2.5-1.8C194.9,12.8,193,14.4,192.4,16.8z"/>
		<path
			class="st1"
			d="M211.6,23.7c-3.2,0-4.5-1.9-4.1-4.7l1-6.1h-2.6l0.3-1.9h2.6l0.6-3.6l2.1-0.3l-0.6,3.9h7.3l-0.3,1.9h-7.3
		l-1,6.1c-0.3,1.7,0.5,2.7,2.1,2.7c1.6,0,2.7-0.9,3-2.5c0.1-0.7,0.1-1.5-0.1-2.4l2-0.5c0.2,0.7,0.3,1.9,0.2,2.9
		C216.3,21.9,214.3,23.7,211.6,23.7z"/>
		<path class="st1" d="M221.1,16.9c0.6-3.6,3.5-6.2,6.9-6.2c3.6,0,6,2.7,5.3,6.7c-0.6,3.7-3.5,6.3-6.9,6.3
		C222.8,23.7,220.5,21,221.1,16.9z M231.2,17.2c0.4-2.6-1-4.4-3.3-4.4c-2.3,0-4.3,1.9-4.7,4.4s1,4.4,3.3,4.4
		C228.8,21.7,230.8,19.8,231.2,17.2z"/>
		<path class="st1" d="M242.8,23.5h-1.9L237.4,11h2.1l2.6,9.8l5.7-9.8h2.3L242.8,23.5z"/>
		<path
			class="st1"
			d="M260.6,21.9c-1.1,1.2-2.5,1.8-3.9,1.8c-3.1,0-5.1-2.4-4.4-6.5c0.6-4.1,3.2-6.5,6-6.5c1.6,0,3,0.7,3.8,2
		l0.2-1.7h2l-1.9,12.5h-2C260.4,22.9,260.5,22.4,260.6,21.9z M254.4,17.2c-0.4,2.8,0.9,4.6,2.9,4.6c2,0,3.9-1.8,4.3-4.6
		c0.5-2.8-0.9-4.6-2.9-4.6C256.7,12.6,254.8,14.4,254.4,17.2z"/>
	</g>
</svg>
