<svg xmlns="http://www.w3.org/2000/svg" xmlns:xlink="http://www.w3.org/1999/xlink" viewBox="0 0 467.2 70" xml:space="preserve">
	<g>
		<path
			d="M7,43.3c2.9,2.5,7.3,3.7,12.2,3.7c5.5,0,9.1-2.4,9.1-6.5c0-4.1-3.6-5.1-11.4-7.4S4.8,28.5,4.8,22.3c0-7.1,6.3-10.8,14-10.8
		c3.9,0,8.2,0.7,12.7,4.1l-2.9,3.6c-3.1-2.4-6.6-3.5-10.3-3.5c-5.1,0-8.7,2-8.7,6.2s3.4,5.3,9.4,7C25.7,30.8,33.3,33,33.3,40
		c0,8.5-7,11.7-14.9,11.7c-5.3,0-10.9-1-14.8-4.2L7,43.3z"/>
		<path d="M68.7,42.8c-2.1,5.4-7.1,8.8-13.2,8.8c-8.1,0-14.3-6.1-14.3-14.9c0-8.8,6.2-14.9,14.3-14.9c6.8,0,12.2,4.2,13.8,10.7
		l-4.4,1.4c-1-4.4-4.7-7.4-9.3-7.4c-5.6,0-9.7,4.3-9.7,10.2s4.1,10.2,9.7,10.2c4,0,7.3-2.4,8.8-6.1L68.7,42.8z"/>
		<path d="M77.4,22.3h12.1c0,1.3,0,2.4-0.1,3.6c2-2.7,5.1-4.2,8.6-4.2c3.5,0,6.8,1.5,8.5,3.6l-3.5,3c-1.1-1.5-3.2-2.3-5.9-2.3
		c-4.5,0-7.6,2.9-7.6,7.6v12.9h11.7V51H76v-4.4h8.7V26.8h-7.3V22.3z"/>
		<path d="M111.7,36.7c0-8.8,6.2-14.9,14.3-14.9c8.2,0,14.3,6.2,14.3,14.9c0,8.8-6.2,14.9-14.3,14.9
		C117.8,51.6,111.7,45.5,111.7,36.7z M135.4,36.7c0-5.9-4-10.2-9.4-10.2c-5.4,0-9.4,4.3-9.4,10.2s4,10.2,9.4,10.2
		C131.4,46.9,135.4,42.6,135.4,36.7z"/>
		<path d="M150.6,31c0-9.4,0-15.7-0.1-20h4.8c-0.1,4.3-0.1,10.7-0.1,20c0,10.6,0,15.7,0.1,20h-4.8C150.6,46.7,150.6,41.5,150.6,31z
		 M168.4,51c0.1-4.3,0.1-9.5,0.1-20c0-9.4,0-15.7-0.1-20h4.8c-0.1,4.3-0.1,10.7-0.1,20c0,10.6,0,15.7,0.1,20H168.4z"/>
		<path d="M235.4,51.6c-7.1,0-10.8-4.3-10.8-10.8V26.8h-6.2v-4.4h6.2V14l4.8-0.7v9h17v4.4h-17v13c0,4.5,2.4,7.1,6,7.1
		c3.6,0,6-2,6-5.7c0-1.6-0.2-3.5-1.1-5.4l4.4-1.2c0.8,1.7,1.4,4.3,1.4,6.8C246.2,47.5,241.9,51.6,235.4,51.6z"/>
		<path d="M255.1,36.7c0-8.8,6.2-14.9,14.3-14.9c8.2,0,14.3,6.2,14.3,14.9c0,8.8-6.2,14.9-14.3,14.9
		C261.3,51.6,255.1,45.5,255.1,36.7z M278.8,36.7c0-5.9-4-10.2-9.4-10.2c-5.4,0-9.4,4.3-9.4,10.2s4,10.2,9.4,10.2
		C274.8,46.9,278.8,42.6,278.8,36.7z"/>
		<path d="M327.7,51v-4.5l19.7-19.6h-17.9v-4.5h24.4v4.5l-19.7,19.6h20.3V51H327.7z"/>
		<path d="M362.7,36.7c0-8.8,6.2-14.9,14.3-14.9c8.2,0,14.3,6.2,14.3,14.9c0,8.8-6.2,14.9-14.3,14.9
		C368.8,51.6,362.7,45.5,362.7,36.7z M386.4,36.7c0-5.9-4-10.2-9.4-10.2c-5.4,0-9.4,4.3-9.4,10.2s4,10.2,9.4,10.2
		C382.4,46.9,386.4,42.6,386.4,36.7z"/>
		<path d="M398.5,36.7c0-8.8,6.2-14.9,14.3-14.9c8.2,0,14.3,6.2,14.3,14.9c0,8.8-6.2,14.9-14.3,14.9
		C404.7,51.6,398.5,45.5,398.5,36.7z M422.2,36.7c0-5.9-4-10.2-9.4-10.2c-5.4,0-9.4,4.3-9.4,10.2s4,10.2,9.4,10.2
		C418.2,46.9,422.2,42.6,422.2,36.7z"/>
		<path
			d="M439.2,51h-4.5c0.1-4.3,0.1-9.3,0.1-14.3s0-10-0.1-14.3h4.5c0,0.8,0,1.6-0.1,2.3c1.4-1.9,3.3-2.9,5.4-2.9
		c2.6,0,4.7,1.6,5.7,4.2c1.4-2.7,3.6-4.2,6.2-4.2c3.6,0,6.3,3.2,6.3,8.2v21h-4.4V30.3c0-2.9-1.3-4.3-3-4.3c-2.6,0-4.3,2.9-4.3,7.6
		V51h-4.4V30.3c0-2.9-1.3-4.3-3.2-4.3c-2.5,0-4.2,2.9-4.2,7.6V51z"/>
	</g>
</svg>
