<svg viewBox="0 0 78 32.3">
    <path d="M0,32.3v-2h78v2H0z" />
    <g transform="translate(0.04586411,23.4613)">
        <path d="m 1.352,-1.586 c 1.69,1.404 4.134,1.846 6.422,1.846 3.458,0 6.5,-1.378 6.5,-5.07 0,-3.016 -3.328,-3.978 -6.24,-4.81 -2.626,-0.754 -4.108,-1.248 -4.108,-3.042 0,-1.794 1.534,-2.678 3.77,-2.678 1.612,0 3.146,0.442 4.498,1.508 l 1.274,-1.586 c -1.924,-1.482 -3.796,-1.768 -5.512,-1.768 -3.328,0 -6.084,1.586 -6.084,4.68 0,2.73 1.846,3.744 5.252,4.732 3.406,0.988 4.966,1.456 4.966,3.224 0,1.742 -1.586,2.808 -3.978,2.808 -2.132,0 -4.056,-0.52 -5.304,-1.612 l -1.456,1.768 z" />
        <path d="m 20.087844,-7.54 c 0,-2.054 1.716,-3.328 3.51,-3.328 1.716,0 3.042,1.066 3.042,3.328 l 0,7.54 2.132,0 0,-7.852 c 0,-2.99 -2.132,-4.888 -4.784,-4.888 -1.586,0 -3.042,0.676 -3.952,1.898 0.052,-0.572 0.052,-1.066 0.052,-1.638 l 0,-4.94 -2.08,0 c 0.026,1.872 0.026,5.278 0.026,8.71 0,3.406 0,6.838 -0.026,8.71 l 2.08,0 0,-7.54 z" />
        <path d="m 46.882469,-3.276 -1.768,-0.416 c 0,1.3 -0.442,2.132 -1.196,2.132 -0.546,0 -0.884,-0.39 -0.884,-0.91 l 0,-6.136 c 0,-2.47 -1.82,-4.134 -4.836,-4.134 -2.834,0 -4.966,1.56 -4.966,3.718 0,0.078 0.052,0.416 0.104,0.78 l 1.95,-0.39 c -0.026,-0.182 -0.052,-0.312 -0.052,-0.338 0,-1.092 1.196,-1.872 2.808,-1.872 1.43,0 2.912,0.676 2.912,2.496 l 0,0.936 c -1.456,0.156 -2.782,0.286 -4.082,0.572 -2.418,0.494 -3.978,1.768 -3.978,3.848 0,1.95 1.56,3.25 3.952,3.25 1.638,0 3.12,-0.702 4.16,-1.898 0.26,1.014 1.274,1.898 2.704,1.898 1.924,0 3.172,-1.404 3.172,-3.536 z m -11.83,0.052 c 0,-0.806 0.65,-1.586 1.768,-1.898 0.988,-0.286 2.574,-0.52 4.134,-0.702 l 0,2.288 c -0.884,1.222 -2.34,2.002 -3.874,2.002 -1.222,0 -2.028,-0.676 -2.028,-1.69 z" />
        <path d="m 49.107094,-10.556 3.198,0 0,8.632 -3.796,0 0,1.924 10.92,0 0,-1.924 -5.07,0 0,-5.616 c 0,-2.054 1.352,-3.328 3.328,-3.328 1.144,0 2.054,0.364 2.548,1.014 l 1.534,-1.3 c -0.754,-0.936 -2.184,-1.586 -3.718,-1.586 -1.508,0 -2.86,0.65 -3.744,1.82 0.052,-0.52 0.052,-0.988 0.052,-1.56 l -5.252,0 0,1.924 z" />
        <path d="m 76.422938,-6.604 c 0,-3.744 -2.548,-6.136 -5.928,-6.136 -3.64,0 -6.318001,2.678 -6.318001,6.5 0,3.848 2.782001,6.5 6.474,6.5 2.444,0 4.498001,-1.066 5.564001,-2.886 L 74.576937,-3.64 c -0.701999,1.222 -2.262,2.028 -3.9,2.028 -2.417999,0 -4.107999,-1.404 -4.497999,-3.64 l 10.14,0 c 0.078,-0.468 0.104,-0.936 0.104,-1.352 z m -6.11,-4.264 c 2.262,0 3.795999,1.456 4.055999,3.718 l -8.215999,0 c 0.337999,-2.262 1.898,-3.718 4.16,-3.718 z" />
    </g>
</svg>