<svg xmlns="http://www.w3.org/2000/svg" xmlns:xlink="http://www.w3.org/1999/xlink" viewBox="0 0 267.1 32.3" xml:space="preserve">
	<path d="M0,32.3v-2h267.1v2H0z"/>
	<g class="st0">
		<path class="st1" d="M9.5,23.5H6.1L4,6.6h2.1L8,22.1l6.8-15.5h2.2L9.5,23.5z"/>
		<path
			class="st1"
			d="M26.6,21.9c-1.1,1.2-2.5,1.8-3.9,1.8c-3.1,0-5.1-2.4-4.4-6.5c0.6-4.1,3.2-6.5,6-6.5c1.6,0,3,0.7,3.8,2l0.2-1.7
		h2l-2,12.5h-2C26.4,22.9,26.5,22.4,26.6,21.9z M20.4,17.2c-0.4,2.8,0.9,4.6,2.9,4.6s3.9-1.8,4.3-4.6c0.5-2.8-0.9-4.6-2.9-4.6
		S20.8,14.4,20.4,17.2z"/>
		<path
			class="st1"
			d="M42.2,21.9c-1.1,1.2-2.5,1.8-3.9,1.8c-3.1,0-5.1-2.4-4.4-6.5c0.6-4.1,3.2-6.5,6-6.5c1.7,0,3,0.7,3.8,2
		c0-0.5,0.1-1.2,0.2-1.8L44.7,6h2L44,23.5h-2C42,22.9,42.1,22.4,42.2,21.9z M36,17.2c-0.4,2.8,0.9,4.6,2.9,4.6c2,0,3.9-1.8,4.3-4.6
		c0.5-2.8-0.9-4.6-2.9-4.6C38.4,12.6,36.4,14.4,36,17.2z"/>
		<path
			class="st1"
			d="M52.8,19l1-6.1h-4.2l0.3-1.9h6.3l-1.2,7.6c-0.3,1.8,0.5,3.1,2.1,3.1c1.3,0,2-0.8,2.2-2
		c0.1-0.6,0.1-1.3-0.1-1.8l2-0.5c0.2,0.7,0.3,1.7,0.1,2.5c-0.3,2.2-2.2,3.8-4.4,3.8C54,23.7,52.4,21.7,52.8,19z M53.4,6.8
		c0-1.2,1-2.3,2.3-2.3s2.3,1,2.3,2.3s-1,2.3-2.3,2.3S53.4,8.1,53.4,6.8z"/>
		<path
			class="st1"
			d="M66.2,23.5h-2l2-12.5h2c-0.1,0.3-0.1,0.6-0.1,0.9c0.7-0.7,1.4-1.1,2.2-1.1c1.2,0,2.1,0.6,2.4,1.7
		c0.7-1.1,1.7-1.7,2.7-1.7c1.8,0,2.8,1.4,2.5,3.6l-1.5,9.2h-2l1.4-9c0.2-1.2-0.3-1.9-1-1.9c-1,0-1.9,1.1-2.3,3l-1.2,7.9h-2l1.4-9
		c0.2-1.2-0.3-1.9-1-1.9c-1.1,0-2,1.2-2.3,3.3L66.2,23.5z"/>
		<path class="st1" d="M99.8,7.9l-2.5,15.5h-2L98,6.6h3.5l1.1,9.1l4-9.1h3.6l-2.7,16.9h-2L108,8l-4.1,9.1h-3.2L99.8,7.9z"/>
		<path
			class="st1"
			d="M115.2,19l1-6.1h-4.2l0.3-1.9h6.3l-1.2,7.6c-0.3,1.8,0.5,3.1,2.1,3.1c1.3,0,2-0.8,2.2-2
		c0.1-0.6,0.1-1.3-0.1-1.8l2-0.5c0.2,0.7,0.3,1.7,0.1,2.5c-0.3,2.2-2.2,3.8-4.4,3.8C116.4,23.7,114.8,21.7,115.2,19z M115.8,6.8
		c0-1.2,1-2.3,2.3-2.3s2.3,1,2.3,2.3s-1,2.3-2.3,2.3S115.8,8.1,115.8,6.8z"/>
		<path class="st1" d="M128.6,11h5.4c-0.1,0.6-0.2,1-0.3,1.5c1-1.1,2.4-1.8,4-1.8c1.2,0,2.7,0.6,3.3,1.6l-1.7,1.3
		c-0.4-0.6-1.2-1-2.3-1c-1.9,0-3.5,1.3-3.8,3.3l-1.2,7.5h-2l1.7-10.6h-3.4L128.6,11z"/>
		<path
			class="st1"
			d="M146.5,28.7c-2.1,0-3.7-0.8-4.4-2.2l2-1.1c0.6,0.9,1.6,1.4,3,1.4c2.1,0,3.8-1.5,4.5-5.5
		c-1,1.1-2.3,1.6-3.6,1.6c-2.9,0-4.8-2.3-4.2-6.1c0.6-3.8,3.1-6.1,5.7-6.1c1.5,0,2.8,0.6,3.6,1.8c0-0.5,0.1-1,0.2-1.5h2.1l-1.6,10.2
		C152.6,26.9,149.7,28.7,146.5,28.7z M148.4,21.1c1.7,0,3.4-1.5,4-3.8l0.1-0.8c0.2-2.3-1-3.8-2.7-3.8c-1.8,0-3.6,1.7-4,4.2
		C145.3,19.4,146.6,21.1,148.4,21.1z"/>
		<path class="st1" d="M158.7,16.9c0.6-3.6,3.5-6.2,6.9-6.2c3.6,0,6,2.7,5.3,6.7c-0.6,3.7-3.5,6.3-6.9,6.3
		C160.4,23.7,158.1,21,158.7,16.9z M168.8,17.2c0.4-2.6-1-4.4-3.3-4.4c-2.3,0-4.3,1.9-4.7,4.4s1,4.4,3.3,4.4
		C166.4,21.7,168.4,19.8,168.8,17.2z"/>
		<path class="st1" d="M175.4,11h5.4c-0.1,0.6-0.2,1-0.3,1.5c1-1.1,2.4-1.8,4-1.8c1.2,0,2.7,0.6,3.3,1.6l-1.7,1.3
		c-0.4-0.6-1.2-1-2.3-1c-1.9,0-3.5,1.3-3.8,3.3l-1.2,7.5h-2l1.7-10.6h-3.4L175.4,11z"/>
		<path class="st1" d="M189.9,16.9c0.6-3.6,3.5-6.2,6.9-6.2c3.6,0,6,2.7,5.3,6.7c-0.6,3.7-3.5,6.3-6.9,6.3
		C191.6,23.7,189.3,21,189.9,16.9z M200,17.2c0.4-2.6-1-4.4-3.3-4.4c-2.3,0-4.3,1.9-4.7,4.4s1,4.4,3.3,4.4
		C197.6,21.7,199.6,19.8,200,17.2z"/>
		<path
			class="st1"
			d="M213.8,21.9c-1.1,1.2-2.5,1.8-3.9,1.8c-3.1,0-5.1-2.4-4.4-6.5c0.7-4.1,3.2-6.5,6-6.5c1.7,0,3,0.7,3.8,2
		c0-0.5,0.1-1.2,0.2-1.8l0.8-4.9h2l-2.8,17.4h-2C213.6,22.9,213.7,22.4,213.8,21.9z M207.6,17.2c-0.4,2.8,0.9,4.6,2.9,4.6
		s3.9-1.8,4.3-4.6c0.5-2.8-0.9-4.6-2.9-4.6S208,14.4,207.6,17.2z"/>
		<path
			class="st1"
			d="M231.9,14c-1-0.9-2.6-1.4-4.2-1.4c-1.6,0-2.4,0.6-2.6,1.4c-0.3,1.5,0.9,1.7,3.5,2.3c2.5,0.7,4.2,1.5,3.8,4.1
		c-0.3,2.1-2.4,3.3-5.4,3.3c-2.8,0-4.8-0.7-6-2l1.8-1.5c1,1,2.6,1.6,4.3,1.6c1.7,0,2.9-0.5,3-1.4c0.2-1.4-0.8-1.6-3.9-2.4
		c-2.3-0.6-3.7-1.8-3.3-4.1c0.4-2.3,2.6-3.2,5-3.2c2,0,4,0.6,5.4,1.7L231.9,14z"/>
		<path class="st1" d="M242.3,17.3l-3,2.4l-0.6,3.8h-2L239.4,6h2l-1.7,10.7l7.4-5.8h3l-6.2,4.9l4.3,7.6h-2.6L242.3,17.3z"/>
		<path
			class="st1"
			d="M255.9,28.7c-2.1,0-3.7-0.8-4.4-2.2l2-1.1c0.6,0.9,1.6,1.4,3,1.4c2.2,0,3.8-1.5,4.5-5.6
		c-1,1.1-2.4,1.7-3.8,1.7c-2.7,0-4.5-1.8-4.1-4.8l1.1-7.2h2.1l-1.1,6.9c-0.3,2.2,0.8,3.2,2.4,3.2c1.7,0,3.5-1.2,3.8-3.2l1.1-6.9h2.1
		l-1.7,10.7C262.1,27,259.2,28.7,255.9,28.7z"/>
	</g>
</svg>
