<svg xmlns="http://www.w3.org/2000/svg" xmlns:xlink="http://www.w3.org/1999/xlink" viewBox="0 0 125.8 32.3" xml:space="preserve">
	<path d="M0,32.3v-2h125.8v2H0z"/>
	<g class="st0">
		<path class="st1" d="M11.5,8.5H2.4V6.6h11.5v1.9L4.1,21.5h10v1.9H1.6v-1.9L11.5,8.5z"/>
		<path class="st1" d="M17.2,17.2c0-3.8,2.7-6.5,6.2-6.5c3.6,0,6.2,2.7,6.2,6.5c0,3.8-2.7,6.5-6.2,6.5C19.9,23.7,17.2,21.1,17.2,17.2
		z M27.5,17.2c0-2.6-1.7-4.4-4.1-4.4c-2.4,0-4.1,1.9-4.1,4.4c0,2.6,1.7,4.4,4.1,4.4C25.8,21.7,27.5,19.8,27.5,17.2z"/>
		<path class="st1" d="M32.8,17.2c0-3.8,2.7-6.5,6.2-6.5c3.6,0,6.2,2.7,6.2,6.5c0,3.8-2.7,6.5-6.2,6.5C35.5,23.7,32.8,21.1,32.8,17.2
		z M43.1,17.2c0-2.6-1.7-4.4-4.1-4.4c-2.4,0-4.1,1.9-4.1,4.4c0,2.6,1.7,4.4,4.1,4.4C41.4,21.7,43.1,19.8,43.1,17.2z"/>
		<path
			class="st1"
			d="M50.5,23.5h-2c0-1.9,0-4.1,0-6.2c0-2.2,0-4.4,0-6.2h2c0,0.4,0,0.7,0,1c0.6-0.8,1.4-1.3,2.3-1.3
		c1.1,0,2.1,0.7,2.5,1.8c0.6-1.2,1.6-1.8,2.7-1.8c1.6,0,2.8,1.4,2.8,3.6v9.2h-1.9v-9c0-1.2-0.6-1.9-1.3-1.9c-1.1,0-1.9,1.2-1.9,3.3
		v7.5h-1.9v-9c0-1.2-0.6-1.9-1.4-1.9c-1.1,0-1.8,1.2-1.8,3.3V23.5z"/>
		<path class="st1" d="M79.6,17.2c0-3.8,2.7-6.5,6.2-6.5c3.6,0,6.2,2.7,6.2,6.5c0,3.8-2.7,6.5-6.2,6.5C82.3,23.7,79.6,21.1,79.6,17.2
		z M89.9,17.2c0-2.6-1.7-4.4-4.1-4.4c-2.4,0-4.1,1.9-4.1,4.4c0,2.6,1.7,4.4,4.1,4.4C88.2,21.7,89.9,19.8,89.9,17.2z"/>
		<path class="st1" d="M104.6,18.7V11h2.1c0,1.9,0,4.1,0,6.2c0,2.2,0,4.4,0,6.2h-2.1c0-0.6,0-1,0.1-1.5c-0.9,1.1-2.3,1.8-3.8,1.8
		c-2.6,0-4.7-1.8-4.7-4.8v-8h2.1v7.7c0,2.2,1.3,3.2,2.9,3.2C103,21.8,104.6,20.6,104.6,18.7z"/>
		<path class="st1" d="M117.9,23.7c-3.1,0-4.7-1.9-4.7-4.7v-6.1h-2.7V11h2.7V7.3l2.1-0.3V11h7.4v1.9h-7.4v5.7c0,2,1,3.1,2.6,3.1
		c1.6,0,2.6-0.9,2.6-2.5c0-0.7-0.1-1.5-0.5-2.4l1.9-0.5c0.3,0.7,0.6,1.9,0.6,2.9C122.5,21.9,120.7,23.7,117.9,23.7z"/>
	</g>
</svg>
