<svg xmlns="http://www.w3.org/2000/svg" xmlns:xlink="http://www.w3.org/1999/xlink" viewBox="0 0 108.5 32.3" xml:space="preserve">
	<path d="M0,32.3v-2h108.5v2H0z"/>
	<g class="st0">
		<path class="st1" d="M11.5,8.5H2.4V6.6h11.5v1.9L4.1,21.5h10v1.9H1.6v-1.9L11.5,8.5z"/>
		<path class="st1" d="M17.2,17.2c0-3.8,2.7-6.5,6.2-6.5c3.6,0,6.2,2.7,6.2,6.5c0,3.8-2.7,6.5-6.2,6.5C19.9,23.7,17.2,21.1,17.2,17.2
		z M27.5,17.2c0-2.6-1.7-4.4-4.1-4.4c-2.4,0-4.1,1.9-4.1,4.4s1.7,4.4,4.1,4.4C25.8,21.7,27.5,19.8,27.5,17.2z"/>
		<path class="st1" d="M32.8,17.2c0-3.8,2.7-6.5,6.2-6.5c3.6,0,6.2,2.7,6.2,6.5c0,3.8-2.7,6.5-6.2,6.5C35.5,23.7,32.8,21.1,32.8,17.2
		z M43.1,17.2c0-2.6-1.7-4.4-4.1-4.4c-2.4,0-4.1,1.9-4.1,4.4s1.7,4.4,4.1,4.4C41.4,21.7,43.1,19.8,43.1,17.2z"/>
		<path
			class="st1"
			d="M50.5,23.5h-2c0-1.9,0-4.1,0-6.2s0-4.4,0-6.2h2c0,0.4,0,0.7,0,1c0.6-0.8,1.4-1.3,2.3-1.3
		c1.1,0,2.1,0.7,2.5,1.8c0.6-1.2,1.6-1.8,2.7-1.8c1.6,0,2.8,1.4,2.8,3.6v9.2h-1.9v-9c0-1.2-0.6-1.9-1.3-1.9c-1.1,0-1.9,1.2-1.9,3.3
		v7.5h-1.9v-9c0-1.2-0.6-1.9-1.4-1.9c-1.1,0-1.8,1.2-1.8,3.3V23.5z"/>
		<path class="st1" d="M80.4,11h7.4c0,1.9,0,4.1,0,6.2v4.3h4.9v1.9H79.4v-1.9h6.2v-8.6h-5.3V11z M83.4,6.8c0-1.2,1-2.3,2.3-2.3
		s2.3,1,2.3,2.3s-1,2.3-2.3,2.3S83.4,8.1,83.4,6.8z"/>
		<path class="st1" d="M98.1,23.5h-2.1c0-1.9,0-4.1,0-6.2s0-4.4,0-6.2h2.1c0,0.6,0,1.1-0.1,1.6c0.9-1.2,2.4-1.9,4-1.9
		c2.6,0,4.7,1.9,4.7,4.9v7.9h-2.1v-7.5c0-2.3-1.3-3.3-3-3.3c-1.8,0-3.5,1.3-3.5,3.3V23.5z"/>
	</g>
</svg>
